<svg xmlns="http://www.w3.org/2000/svg" viewBox="0 0 24 24" fill="none" stroke="currentColor" stroke-width="1.5" stroke-linecap="round" stroke-linejoin="round">
  <path fill="currentColor" fill-opacity=".1" d="M14 2H6.5A2.5 2.5 0 0 0 4 4.5v15A2.5 2.5 0 0 0 6.5 22h11a2.5 2.5 0 0 0 2.5-2.5V8Z"/><path fill="currentColor" fill-opacity=".1" stroke="none" d="M14 2v3.5A2.5 2.5 0 0 0 16.5 8H20Z"/><path d="M14 2v3.5A2.5 2.5 0 0 0 16.5 8H20"/>
  <rect fill="currentColor" fill-opacity=".5" stroke="none" x="7.5" y="10.5" width="6" height="2.5" rx="1"/>
  <path d="M7.75 15.25h8.5M7.75 18.25h5.5"/>
</svg>
